# xmcd
#
# Track frame offsets:
#	150
#	25387
#	37758
#	64782
#	84739
#	103553
#	124882
#	142505
#	160790
#	177257
#	191913
#	213834
#	233986
#	257523
#	283530
#
# Disc length: 4032 seconds
#
# Revision: 1
# Processed by: cddbd v1.4PL0 Copyright (c) Steve Scherf et al.
# Submitted via: EasyCDDAExtractor 5.0.7
#
DISCID=c70fbe0f
DTITLE=Various Artist - Kink - Blues From The Waterfront
DYEAR=2002
DGENRE=Blues
TTITLE0=Eddy Clearwater - Cool Blues Walk
TTITLE1=Henry Cooper - Sittin' On It
TTITLE2=Popa Chubby - She Said Evil Was Her Name
TTITLE3=Paul deLay - All Cried Out
TTITLE4=Ellen Whyte and Reflex Blue - If You Ever See My Baby
TTITLE5=Charlie Musslewhite - Blues Overtook Me
TTITLE6=Robbie Laws - When Lightnin Strikes
TTITLE7=James Cotton, Carey Bell and Junior Wells - Second Hand Man
TTITLE8=Jimmy Thackery - Empty Arms Motel
TTITLE9=Lloyd Jones - Highway Rider
TTITLE10=RL Burnside - Shake 'em on Down
TTITLE11=Little Charlie and The Nightcats - Don't Do It
TTITLE12=Too Slim and The Taildraggers - Crowbar Hotel
TTITLE13=Curtis Salgado - Lip Whippin'
TTITLE14=Luther Allison - I'm Back
EXTD=
EXTT0=
EXTT1=
EXTT2=
EXTT3=
EXTT4=
EXTT5=
EXTT6=
EXTT7=
EXTT8=
EXTT9=
EXTT10=
EXTT11=
EXTT12=
EXTT13=
EXTT14=
PLAYORDER=
